<svg id="svg" xmlns="http://www.w3.org/2000/svg" xmlns:xlink="http://www.w3.org/1999/xlink" width="400" height="400" viewBox="0, 0, 400,400"><g id="svgg"><path id="path0" d="M182.656 0.462 C 133.005 5.562,90.714 25.701,56.558 60.510 C 24.824 92.850,6.201 132.950,0.559 181.094 C -0.004 185.901,0.002 213.754,0.568 218.906 C 6.711 274.864,32.522 322.526,75.239 356.789 C 104.463 380.230,144.687 396.603,180.625 399.686 C 185.419 400.098,214.522 400.085,219.063 399.669 C 287.094 393.443,349.126 350.504,379.527 288.594 C 390.256 266.745,395.824 247.564,399.256 220.625 C 400.534 210.592,400.183 186.700,398.581 174.632 C 386.929 86.871,320.109 17.357,233.125 2.505 C 219.564 0.190,194.988 -0.805,182.656 0.462 M220.938 9.800 C 306.231 18.801,377.090 87.068,389.332 172.031 C 391.992 190.492,391.312 219.526,387.813 236.943 C 365.971 345.653,257.241 413.627,150.790 385.121 C 84.350 367.330,32.778 315.639,14.870 248.889 C 5.629 214.443,6.824 174.657,18.132 140.313 C 42.032 67.720,109.228 14.749,184.219 9.383 C 190.245 8.952,215.636 9.240,220.938 9.800 M181.025 15.961 C 177.894 16.093,174.258 16.422,172.945 16.694 C 171.632 16.965,170.503 17.188,170.435 17.188 C 170.368 17.188,170.313 22.737,170.313 29.519 L 170.313 41.851 169.141 42.156 C 161.433 44.160,158.254 45.018,152.690 46.598 C 149.099 47.618,146.124 48.414,146.078 48.367 C 146.033 48.320,144.138 45.047,141.867 41.094 C 135.755 30.452,133.453 27.277,132.118 27.652 C 125.274 29.575,90.914 49.336,84.688 54.930 L 83.281 56.193 84.356 58.175 C 85.191 59.713,91.778 71.164,94.950 76.592 L 95.424 77.403 86.239 86.467 L 77.055 95.531 74.387 93.916 C 68.734 90.495,56.261 83.438,55.874 83.442 C 53.669 83.468,28.760 126.436,27.606 132.204 C 27.301 133.729,30.806 136.275,41.985 142.649 L 48.354 146.280 47.034 150.406 C 46.308 152.675,44.818 158.152,43.723 162.578 L 41.731 170.625 29.371 170.625 L 17.011 170.625 16.605 172.816 C 15.182 180.512,15.225 220.782,16.664 227.656 L 17.057 229.531 29.388 229.615 L 41.719 229.699 43.677 237.115 C 44.755 241.194,46.243 246.660,46.984 249.262 L 48.332 253.994 43.775 256.592 C 31.968 263.325,27.500 266.329,27.500 267.533 C 27.500 269.626,35.605 285.416,42.802 297.344 C 46.507 303.485,55.440 316.866,55.838 316.871 C 56.160 316.874,67.889 310.224,74.715 306.167 L 77.086 304.758 86.199 313.656 C 91.212 318.550,95.313 322.674,95.313 322.820 C 95.313 322.966,93.934 325.450,92.250 328.340 C 84.381 341.840,83.389 343.700,83.723 344.325 C 85.572 347.779,126.932 371.868,131.934 372.404 C 133.852 372.610,135.214 370.764,142.563 357.998 C 144.452 354.716,146.043 351.984,146.098 351.926 C 146.154 351.869,148.777 352.557,151.928 353.457 C 155.078 354.356,160.469 355.824,163.906 356.717 L 170.156 358.342 170.238 370.733 C 170.283 377.549,170.399 383.125,170.497 383.125 C 170.595 383.125,173.159 383.492,176.197 383.940 L 181.719 384.754 198.438 384.580 C 214.919 384.407,226.303 383.952,227.735 383.407 C 229.270 382.824,229.422 381.707,229.609 369.625 C 229.705 363.472,229.827 358.438,229.880 358.438 C 229.973 358.438,237.138 356.506,248.438 353.436 C 251.445 352.618,253.922 351.968,253.941 351.990 C 253.960 352.013,255.629 354.914,257.650 358.438 C 264.714 370.750,266.117 372.631,268.070 372.411 C 273.099 371.845,314.425 347.786,316.260 344.356 C 316.581 343.756,315.571 341.859,308.087 329.007 C 306.217 325.797,304.688 323.031,304.688 322.861 C 304.688 322.691,308.784 318.546,313.790 313.651 L 322.892 304.749 325.587 306.380 C 331.435 309.920,343.743 316.874,344.126 316.855 C 346.153 316.754,368.673 278.282,371.880 269.441 L 372.593 267.475 371.687 266.505 C 370.394 265.120,364.479 261.312,357.698 257.500 C 351.916 254.249,351.862 254.210,352.026 253.281 C 352.116 252.766,353.526 247.427,355.158 241.417 C 356.790 235.408,358.125 230.310,358.125 230.089 C 358.125 229.769,360.621 229.688,370.463 229.688 L 382.801 229.688 382.993 228.828 C 383.099 228.355,383.310 227.481,383.462 226.885 C 384.142 224.212,384.441 212.758,384.279 195.655 C 384.119 178.886,383.923 174.840,383.130 171.895 L 382.788 170.625 370.535 170.622 L 358.281 170.618 355.078 158.664 C 353.316 152.089,351.879 146.571,351.883 146.401 C 351.887 146.232,354.735 144.479,358.211 142.505 C 365.375 138.436,370.363 135.219,371.674 133.818 L 372.567 132.864 372.046 131.293 C 369.364 123.220,346.189 83.570,344.087 83.461 C 343.640 83.437,341.946 84.386,329.792 91.462 C 326.154 93.580,323.056 95.313,322.906 95.313 C 322.523 95.313,304.688 77.827,304.688 77.451 C 304.688 77.281,305.725 75.359,306.992 73.180 C 315.211 59.054,316.568 56.532,316.259 55.954 C 314.521 52.707,275.101 29.575,268.411 27.877 C 266.382 27.362,264.516 29.789,257.510 42.051 L 253.928 48.321 250.167 47.320 C 248.099 46.770,243.172 45.443,239.219 44.370 C 235.266 43.298,231.504 42.280,230.859 42.109 L 229.688 41.799 229.688 29.660 C 229.688 15.853,230.004 17.234,226.697 16.603 C 222.153 15.736,195.337 15.359,181.025 15.961 M207.489 33.794 L 210.625 34.151 210.625 45.954 L 210.625 57.758 211.797 57.936 C 212.441 58.033,214.164 58.265,215.625 58.451 C 224.130 59.531,245.107 65.068,254.089 68.604 C 259.000 70.537,260.946 71.121,261.618 70.863 C 262.071 70.689,264.961 65.995,270.951 55.705 C 273.116 51.986,274.032 50.675,274.375 50.801 C 276.803 51.693,291.556 60.870,291.559 61.491 C 291.564 62.402,289.554 66.391,285.441 73.636 C 279.905 83.386,279.887 81.867,285.586 86.188 C 295.455 93.672,306.826 105.254,316.420 117.595 C 317.801 119.372,318.626 119.055,332.028 111.600 C 335.464 109.689,338.439 108.125,338.639 108.125 C 339.062 108.125,341.135 111.303,344.447 117.031 C 348.919 124.767,349.632 126.095,349.426 126.310 C 349.312 126.429,346.828 127.883,343.906 129.542 C 335.159 134.508,329.014 138.201,328.869 138.579 C 328.794 138.774,329.172 139.982,329.710 141.264 C 335.096 154.099,341.217 176.400,341.268 183.372 C 341.310 189.189,341.312 189.190,355.197 189.315 L 365.864 189.412 366.043 190.565 C 366.949 196.386,366.950 203.982,366.046 209.741 L 365.865 210.889 355.042 210.991 C 341.251 211.122,341.310 211.096,341.268 216.940 C 341.219 223.583,335.381 245.232,330.334 257.485 C 329.453 259.625,328.795 261.540,328.871 261.740 C 329.005 262.089,336.564 266.606,344.531 271.099 C 346.594 272.262,348.587 273.401,348.961 273.630 C 349.637 274.044,349.629 274.067,347.614 277.726 C 345.264 281.993,340.245 290.434,339.402 291.537 L 338.824 292.293 336.053 290.872 C 334.528 290.091,329.932 287.536,325.838 285.194 C 321.745 282.853,318.229 280.938,318.026 280.938 C 317.823 280.939,316.502 282.463,315.092 284.326 C 307.338 294.568,294.924 307.000,284.375 315.088 C 282.570 316.472,280.967 317.715,280.811 317.850 C 280.653 317.988,282.384 321.354,284.762 325.532 C 292.838 339.720,292.642 338.896,288.512 341.309 C 286.838 342.286,282.939 344.571,279.846 346.387 C 276.754 348.202,274.152 349.686,274.065 349.685 C 273.978 349.683,271.627 345.781,268.841 341.013 C 261.538 328.512,262.071 329.269,260.739 329.518 C 260.130 329.633,257.007 330.689,253.800 331.865 C 242.325 336.073,225.506 340.498,216.298 341.732 C 214.295 342.000,212.199 342.289,211.641 342.374 L 210.625 342.528 210.625 354.345 L 210.625 366.161 208.716 366.361 C 200.822 367.186,199.770 367.214,194.728 366.732 C 191.951 366.467,189.610 366.250,189.527 366.250 C 189.443 366.250,189.375 360.909,189.375 354.381 L 189.375 342.512 188.672 342.361 C 188.285 342.279,186.633 342.053,185.000 341.860 C 174.263 340.592,154.520 335.381,142.836 330.732 C 140.529 329.814,138.488 329.063,138.301 329.063 C 138.113 329.063,135.303 333.638,132.055 339.231 C 128.808 344.824,126.058 349.457,125.946 349.526 C 125.324 349.910,108.449 339.511,108.444 338.741 C 108.435 337.645,109.868 334.800,114.808 326.103 C 117.148 321.983,119.063 318.458,119.063 318.271 C 119.063 317.794,117.820 316.679,114.375 314.069 C 105.771 307.548,96.397 298.328,87.997 288.125 C 85.097 284.602,82.464 281.674,82.146 281.619 C 81.364 281.485,76.878 283.646,70.469 287.245 C 65.418 290.081,61.436 292.188,61.125 292.188 C 60.685 292.187,50.053 274.144,50.370 273.935 C 50.424 273.899,52.789 272.556,55.625 270.951 C 63.074 266.735,71.250 261.886,71.250 261.685 C 71.250 261.589,70.386 259.448,69.330 256.927 C 64.631 245.705,59.969 227.801,58.109 213.828 L 57.724 210.938 45.930 210.938 L 34.135 210.938 33.961 210.078 C 33.042 205.549,33.041 193.559,33.960 190.045 L 34.135 189.375 45.918 189.375 L 57.700 189.375 58.081 186.016 C 59.368 174.676,64.583 155.056,69.497 143.066 C 70.461 140.713,71.250 138.707,71.250 138.609 C 71.250 138.307,68.334 136.543,59.375 131.426 C 54.648 128.726,50.680 126.420,50.557 126.300 C 50.063 125.821,60.584 108.125,61.363 108.125 C 61.562 108.125,64.536 109.689,67.972 111.600 C 83.414 120.190,81.632 120.008,86.875 113.535 C 96.127 102.116,100.720 97.476,112.266 87.882 C 116.538 84.333,118.438 82.561,118.438 82.126 C 118.438 81.192,116.445 77.110,112.837 70.653 C 109.341 64.397,108.438 62.506,108.438 61.443 C 108.438 60.731,108.195 60.886,122.284 52.609 C 124.141 51.518,125.758 50.630,125.877 50.637 C 125.996 50.644,128.766 55.282,132.031 60.944 C 135.297 66.606,138.089 71.241,138.236 71.244 C 138.382 71.248,140.421 70.490,142.767 69.560 C 153.527 65.298,170.792 60.605,181.855 58.937 C 185.591 58.374,188.811 57.812,189.011 57.688 C 189.277 57.523,189.375 54.332,189.375 45.794 L 189.375 34.125 191.953 33.825 C 195.653 33.394,203.828 33.378,207.489 33.794 M202.674 69.445 C 201.688 70.852,202.619 73.125,204.182 73.125 C 205.255 73.125,207.500 71.783,207.500 71.142 C 207.500 69.322,203.696 67.985,202.674 69.445 M177.813 69.664 C 175.207 69.909,174.375 70.369,174.375 71.563 C 174.375 73.527,180.087 73.773,181.625 71.875 C 182.417 70.898,181.572 69.299,180.331 69.424 C 180.063 69.451,178.930 69.559,177.813 69.664 M190.075 76.980 C 187.002 78.094,186.317 79.585,187.969 81.563 C 189.377 83.248,189.347 83.649,187.777 84.072 C 185.373 84.719,184.164 84.249,181.719 81.714 C 179.093 78.992,178.511 78.664,176.343 78.684 C 168.570 78.754,162.820 89.442,169.509 91.386 C 172.422 92.233,171.071 93.859,166.113 95.471 C 160.533 97.287,158.445 95.841,158.438 90.156 C 158.429 83.805,156.036 83.357,155.271 89.563 C 154.069 99.311,158.695 104.733,166.053 102.202 C 176.691 98.541,181.160 88.971,173.430 86.404 C 171.584 85.790,171.476 85.203,173.043 84.288 C 174.914 83.195,176.544 84.176,180.093 88.529 C 181.692 90.489,183.034 90.865,185.715 90.103 C 190.826 88.650,203.672 89.564,214.844 92.176 C 227.591 95.157,233.125 93.519,233.125 86.766 C 233.125 79.615,225.517 78.029,217.150 83.437 C 214.832 84.935,214.492 84.961,212.969 83.750 C 211.541 82.615,210.863 82.586,208.742 83.569 C 207.763 84.023,206.905 84.234,206.601 84.097 C 206.322 83.971,205.533 83.615,204.848 83.305 C 203.800 82.832,203.131 82.776,200.628 82.953 C 196.636 83.236,195.740 82.770,197.021 81.075 C 199.231 78.154,194.510 75.371,190.075 76.980 M258.929 83.147 C 255.997 85.721,249.691 96.786,248.396 101.628 C 247.466 105.104,250.533 108.840,255.013 109.690 C 257.310 110.126,258.888 110.943,261.098 112.842 C 262.127 113.726,263.883 114.871,265.000 115.386 C 267.553 116.563,272.306 121.271,276.341 126.621 C 281.411 133.342,283.764 134.256,287.887 131.108 C 292.897 127.282,294.084 120.911,289.780 120.947 C 287.749 120.964,286.563 122.631,286.563 125.469 C 286.563 128.172,285.376 127.678,282.807 123.906 C 281.095 121.391,279.896 120.178,278.666 119.713 C 278.184 119.531,277.656 119.004,277.473 118.522 C 277.004 117.290,276.299 116.599,274.663 115.770 C 273.877 115.371,272.873 114.572,272.433 113.995 C 271.973 113.392,270.532 112.353,269.047 111.554 C 265.850 109.834,265.522 109.315,264.845 104.917 C 264.552 103.013,264.136 100.778,263.922 99.951 C 263.411 97.984,262.876 98.125,270.843 98.125 C 278.095 98.125,279.292 97.950,280.294 96.741 C 281.524 95.259,280.467 94.944,271.094 94.003 C 256.264 92.514,255.595 92.849,258.207 100.469 C 260.053 105.857,259.852 106.495,256.966 104.405 C 253.125 101.622,253.466 98.536,258.553 90.052 C 262.174 84.012,262.500 83.035,261.073 82.492 C 260.028 82.095,260.180 82.048,258.929 83.147 M227.368 86.699 C 228.271 87.935,224.703 88.194,221.420 87.131 L 220.184 86.731 221.420 86.342 C 223.280 85.758,226.836 85.971,227.368 86.699 M132.284 87.063 C 131.496 87.851,131.315 93.841,132.044 95.020 C 132.820 96.276,135.240 95.065,135.530 93.275 L 135.718 92.119 137.236 92.321 C 138.624 92.505,138.782 92.459,139.090 91.782 C 139.824 90.172,138.380 87.500,136.777 87.500 C 136.455 87.500,135.835 87.219,135.398 86.875 C 134.318 86.026,133.257 86.090,132.284 87.063 M240.396 89.056 C 237.756 90.665,234.443 96.658,234.886 99.020 C 235.919 104.527,242.792 103.591,245.549 97.569 C 247.968 92.284,244.499 86.554,240.396 89.056 M268.203 90.828 C 267.347 91.014,267.286 91.738,268.089 92.168 C 269.080 92.699,275.889 93.299,276.296 92.892 C 277.512 91.676,271.428 90.124,268.203 90.828 M147.054 91.429 C 146.308 92.175,146.440 94.107,147.326 95.413 L 148.090 96.539 145.384 96.629 C 142.424 96.727,142.377 96.760,141.665 99.219 C 141.403 100.127,141.324 100.161,139.147 100.313 C 136.612 100.489,136.333 100.706,135.416 103.214 C 134.591 105.468,134.285 105.630,130.308 105.924 C 126.300 106.221,125.640 106.583,125.567 108.529 C 125.512 109.993,126.164 110.728,128.594 111.943 C 133.011 114.151,132.983 115.249,128.327 122.310 C 124.754 127.727,124.787 127.583,127.057 127.924 C 129.473 128.287,133.036 125.726,134.733 122.408 C 135.264 121.369,135.332 120.636,135.277 116.533 C 135.201 110.922,134.978 111.366,139.876 107.399 C 143.956 104.097,146.799 102.189,147.654 102.182 C 149.829 102.165,152.656 98.986,152.656 96.559 C 152.656 93.419,148.693 89.789,147.054 91.429 M241.408 95.627 C 241.720 95.972,241.894 96.335,241.796 96.433 C 241.499 96.730,240.313 95.950,240.313 95.458 C 240.313 94.821,240.738 94.887,241.408 95.627 M197.728 99.341 C 193.579 100.711,189.375 103.965,189.375 105.808 C 189.375 107.411,189.551 107.635,193.235 110.716 C 200.732 116.988,199.670 117.140,210.547 108.243 C 215.257 104.390,204.681 97.046,197.728 99.341 M281.732 105.916 C 281.633 106.076,280.746 106.371,279.760 106.570 C 276.954 107.139,276.563 107.362,276.563 108.393 C 276.563 109.530,277.132 110.010,278.738 110.225 C 279.948 110.388,280.000 110.442,280.005 111.526 C 280.014 113.844,281.504 115.090,282.832 113.889 C 284.351 112.514,285.211 107.761,284.201 106.320 C 283.702 105.607,282.086 105.343,281.732 105.916 M179.375 107.396 C 175.953 108.101,176.951 110.294,184.051 117.676 C 191.950 125.887,194.059 129.163,197.641 138.782 C 200.597 146.719,200.866 146.785,202.982 140.096 C 206.415 129.250,209.182 124.841,218.108 115.996 C 225.330 108.840,225.494 107.348,219.062 107.354 C 214.307 107.358,212.595 108.326,206.103 114.679 C 203.287 117.434,200.894 119.688,200.784 119.688 C 200.281 119.688,199.026 118.811,196.719 116.848 C 195.344 115.679,192.813 113.522,191.094 112.056 C 186.385 108.039,182.927 106.664,179.375 107.396 M114.816 109.378 C 111.918 110.009,112.666 112.566,116.282 114.391 C 118.269 115.394,118.351 115.535,117.686 116.812 C 116.095 119.870,112.890 120.310,111.273 117.694 C 110.508 116.456,109.206 115.927,107.685 116.236 C 105.206 116.739,104.666 120.804,106.525 124.959 C 107.850 127.921,107.758 128.375,104.959 132.678 C 99.003 141.836,94.882 145.614,90.839 145.622 C 87.710 145.628,87.381 146.636,89.685 149.157 C 94.754 154.703,100.399 151.727,107.953 139.529 C 111.243 134.216,115.401 128.558,118.743 124.844 C 122.563 120.598,123.553 118.167,122.816 114.843 C 121.962 110.990,118.445 108.588,114.816 109.378 M164.820 112.016 C 164.673 112.602,165.418 114.308,167.994 119.282 C 177.130 136.918,177.607 138.057,180.136 148.281 C 181.640 154.364,182.485 158.740,183.245 164.375 C 184.478 173.527,184.532 175.998,184.495 220.986 L 184.459 264.628 186.923 265.784 C 190.921 267.661,194.800 267.241,195.810 264.823 C 196.932 262.139,197.353 160.812,196.278 152.188 C 195.428 145.365,191.133 134.751,186.085 127.001 C 180.596 118.574,165.792 108.142,164.820 112.016 M233.438 111.544 C 226.832 113.572,215.695 123.938,211.595 131.875 C 204.986 144.671,204.848 146.348,204.494 218.125 C 204.283 260.950,204.356 264.396,205.501 265.661 C 207.078 267.403,213.858 267.404,215.434 265.663 C 216.752 264.207,217.067 253.615,217.352 201.094 L 217.556 163.594 219.579 155.625 C 223.381 140.650,224.594 137.209,229.738 126.817 C 236.697 112.758,237.277 110.365,233.438 111.544 M294.774 114.453 C 293.652 115.903,294.196 118.004,295.769 118.300 C 297.791 118.679,299.046 117.068,297.987 115.453 C 297.195 114.243,295.375 113.677,294.774 114.453 M110.882 122.917 C 110.950 123.268,110.772 123.438,110.335 123.438 C 109.979 123.438,109.688 123.250,109.688 123.021 C 109.688 122.064,110.700 121.975,110.882 122.917 M94.508 124.401 C 93.242 125.800,94.340 129.063,96.077 129.063 C 97.630 129.063,98.695 126.073,97.689 124.538 C 97.024 123.523,95.367 123.452,94.508 124.401 M298.420 126.351 C 293.464 130.445,287.369 137.727,287.563 139.324 C 287.990 142.849,294.486 137.800,301.302 128.645 C 304.517 124.327,302.660 122.849,298.420 126.351 M118.031 132.846 C 117.722 133.026,117.106 133.939,116.663 134.875 C 116.220 135.811,115.454 136.864,114.960 137.216 C 113.419 138.313,114.177 140.433,116.046 140.252 C 116.896 140.169,117.145 139.922,117.860 138.456 C 118.317 137.517,118.982 136.647,119.344 136.513 C 120.157 136.212,120.257 134.256,119.514 133.195 C 118.967 132.415,118.829 132.382,118.031 132.846 M301.521 135.784 C 300.325 136.435,300.247 136.885,300.489 141.797 C 300.759 147.255,300.743 147.264,297.044 143.780 C 294.144 141.049,292.997 140.540,291.680 141.403 C 287.794 143.949,292.728 151.563,298.264 151.563 C 303.037 151.563,306.323 147.882,306.331 142.525 C 306.339 136.968,304.384 134.229,301.521 135.784 M252.385 137.809 C 245.732 138.650,240.492 141.606,233.886 148.245 C 227.560 154.604,225.195 160.218,224.396 170.784 C 224.045 175.421,223.914 234.248,224.252 235.131 C 224.892 236.798,227.988 234.009,233.173 227.095 L 236.875 222.158 236.875 218.596 C 236.875 202.916,237.796 180.928,238.516 179.426 C 239.436 177.506,242.001 177.504,242.993 179.422 C 243.629 180.651,243.985 185.233,244.374 197.188 C 244.954 215.015,245.112 215.289,252.328 211.018 C 254.210 209.904,257.164 208.312,258.891 207.479 C 263.659 205.181,263.672 205.165,264.048 201.250 C 264.432 197.249,264.909 183.044,265.159 168.125 C 265.476 149.246,265.693 147.426,268.070 143.780 C 270.080 140.696,269.563 139.128,266.243 138.235 C 264.189 137.682,255.503 137.416,252.385 137.809 M136.465 138.116 C 132.619 138.819,132.330 140.622,135.158 146.250 C 137.085 150.086,136.983 148.469,137.171 178.237 L 137.344 205.694 144.688 209.525 C 148.728 211.633,152.782 213.621,153.698 213.944 L 155.363 214.531 155.925 213.840 C 157.065 212.438,157.241 209.800,157.134 195.760 C 157.007 179.219,157.229 178.125,160.707 178.125 C 163.598 178.125,163.448 177.073,163.747 199.531 C 164.066 223.453,164.061 223.418,168.049 227.622 C 169.208 228.844,170.967 231.051,171.957 232.527 C 176.412 239.166,177.074 238.253,177.529 224.844 C 178.297 202.159,177.252 170.730,175.441 162.034 C 173.739 153.865,165.594 144.522,156.883 140.747 C 151.660 138.484,141.569 137.184,136.465 138.116 M279.287 158.490 C 272.572 159.934,271.056 165.831,271.307 189.531 C 271.455 203.515,271.476 203.562,277.667 203.570 C 283.909 203.578,283.864 203.745,284.370 178.576 C 284.799 157.255,284.829 158.791,283.984 158.618 C 282.451 158.304,280.410 158.249,279.287 158.490 M117.308 160.763 C 116.720 162.293,117.046 200.810,117.656 202.031 C 119.330 205.379,128.174 205.822,129.032 202.602 C 130.297 197.848,130.709 174.669,129.599 170.625 C 128.380 166.185,126.284 162.790,123.781 161.203 C 122.138 160.161,117.656 159.856,117.308 160.763 M272.500 210.462 C 253.853 213.626,237.907 227.273,226.887 249.500 C 222.048 259.258,221.427 264.950,225.090 265.976 C 231.571 267.790,234.861 265.599,238.142 257.284 C 244.319 241.627,263.722 222.338,270.191 225.422 C 272.374 226.463,271.446 227.830,261.917 237.602 C 249.348 250.491,243.469 258.731,243.445 263.493 C 243.435 265.416,244.207 266.026,247.323 266.559 C 253.682 267.647,256.960 265.596,262.052 257.346 C 271.716 241.689,290.487 230.902,308.228 230.810 C 314.498 230.778,314.688 230.708,314.688 228.422 C 314.688 226.915,313.112 225.113,309.275 222.231 C 296.239 212.438,283.978 208.514,272.500 210.462 M121.250 210.637 C 108.404 211.941,92.401 220.423,87.141 228.717 C 85.464 231.361,86.280 231.801,93.633 232.217 C 114.470 233.398,129.655 242.786,142.591 262.486 C 144.914 266.023,145.634 266.505,149.128 266.866 C 160.154 268.003,161.079 264.191,152.828 251.613 C 147.313 243.206,144.209 239.938,137.325 235.292 C 130.705 230.823,128.761 228.239,130.769 226.573 C 136.944 221.448,157.808 242.374,165.499 261.406 C 167.278 265.808,170.182 267.543,174.952 267.055 C 181.070 266.428,180.995 262.657,174.606 249.737 C 162.991 226.247,139.204 208.816,121.250 210.637 M311.178 235.988 C 294.271 237.523,279.138 246.495,266.170 262.674 C 261.361 268.674,261.801 270.677,269.151 276.226 C 272.001 278.378,272.614 277.997,278.155 270.625 C 289.485 255.549,301.551 249.466,320.313 249.370 C 328.383 249.328,329.039 248.814,326.658 244.397 C 322.650 236.961,319.473 235.235,311.178 235.988 M82.500 238.191 C 79.668 239.129,74.867 245.425,74.478 248.709 C 74.211 250.960,74.359 251.002,82.476 250.964 C 102.119 250.872,117.451 259.567,127.218 276.340 C 129.632 280.484,129.844 280.473,134.482 275.966 C 140.412 270.203,140.342 268.331,133.931 261.207 C 123.028 249.093,113.283 242.265,103.281 239.732 C 97.572 238.286,85.021 237.356,82.500 238.191 M196.895 272.396 C 190.398 274.772,188.357 285.346,193.443 290.281 C 201.988 298.574,214.540 289.720,210.530 278.228 C 208.800 273.268,202.213 270.452,196.895 272.396 M166.573 273.475 C 142.364 274.860,130.646 284.136,125.766 305.781 C 123.943 313.868,124.495 315.734,129.063 316.910 C 130.960 317.398,175.378 317.677,181.324 317.238 C 188.287 316.724,188.206 316.872,188.033 305.000 C 187.912 296.730,187.661 295.492,186.036 295.149 C 185.552 295.046,184.875 294.889,184.531 294.800 C 184.188 294.710,176.172 294.537,166.719 294.414 C 153.974 294.249,149.349 294.091,148.828 293.804 C 147.186 292.897,148.388 291.102,151.784 289.389 C 155.216 287.658,156.700 287.493,171.094 287.234 C 188.492 286.922,188.125 287.077,188.125 280.056 C 188.125 273.358,185.049 272.419,166.573 273.475 M214.439 276.127 C 213.139 286.629,213.528 286.849,233.438 286.870 C 245.906 286.883,249.172 287.601,253.048 291.179 C 255.673 293.603,255.738 293.594,235.156 293.594 C 212.029 293.594,213.906 292.558,213.906 305.313 C 213.906 315.345,213.977 315.806,215.579 316.238 C 220.824 317.650,266.324 318.204,271.563 316.919 C 275.773 315.886,276.094 315.319,276.092 308.920 C 276.090 298.850,272.072 290.267,263.614 282.260 C 255.298 274.388,252.785 273.795,225.458 273.248 L 214.822 273.035 214.439 276.127 M199.273 305.382 C 196.555 308.239,189.340 318.552,187.467 322.257 C 185.878 325.399,186.299 325.991,191.397 327.783 C 193.618 328.563,195.381 329.905,197.463 332.396 C 200.475 336.000,200.804 335.984,204.688 332.041 C 207.733 328.948,209.315 327.962,212.504 327.168 C 217.103 326.023,217.584 325.531,216.362 323.219 C 213.814 318.400,202.288 304.063,200.961 304.063 C 200.723 304.063,199.964 304.656,199.273 305.382 " stroke="none" fill="#000000" fill-rule="evenodd"></path></g></svg>